<?xml version="1.0" encoding="UTF-8"?> <svg xmlns="http://www.w3.org/2000/svg" width="19" height="22" viewBox="0 0 19 22" fill="none"> <path d="M18.1628 5.92465V16.0753C18.1628 17.6307 18.0195 18.7358 17.6512 19.5237C17.6512 19.534 17.6409 19.5544 17.6307 19.5647C17.4056 19.8512 17.1088 19.9944 16.7609 19.9944C16.2186 19.9944 15.5637 19.6363 14.8577 18.8791C14.0186 17.9786 12.7293 18.0502 11.9925 19.0326L10.9591 20.4037C10.5498 20.9563 10.0074 21.2326 9.46512 21.2326C8.92279 21.2326 8.38044 20.9563 7.97114 20.4037L6.92746 19.0223C6.20095 18.0502 4.92185 17.9786 4.08278 18.8688L4.07254 18.8791C2.91626 20.1172 1.89304 20.3014 1.29955 19.5647C1.28932 19.5544 1.27907 19.534 1.27907 19.5237C0.910698 18.7358 0.767442 17.6307 0.767442 16.0753V5.92465C0.767442 4.3693 0.910698 3.26418 1.27907 2.47628C1.27907 2.46604 1.27909 2.45581 1.29955 2.44558C1.88281 1.6986 2.91626 1.88279 4.07254 3.12093L4.08278 3.13116C4.92185 4.0214 6.20095 3.94977 6.92746 2.97767L7.97114 1.59628C8.38044 1.04372 8.92279 0.767442 9.46512 0.767442C10.0074 0.767442 10.5498 1.04372 10.9591 1.59628L11.9925 2.96744C12.7293 3.94977 14.0186 4.02139 14.8577 3.12093C15.5637 2.36372 16.2186 2.00558 16.7609 2.00558C17.1088 2.00558 17.4056 2.15907 17.6307 2.44558C17.6511 2.45581 17.6512 2.46604 17.6512 2.47628C18.0195 3.26418 18.1628 4.3693 18.1628 5.92465Z" stroke="#292D32" stroke-width="1.5" stroke-linecap="round" stroke-linejoin="round"></path> <path d="M5.88372 9.2093H14.0698" stroke="#292D32" stroke-width="1.5" stroke-linecap="round" stroke-linejoin="round"></path> <path d="M5.88372 12.7907H12.0233" stroke="#292D32" stroke-width="1.5" stroke-linecap="round" stroke-linejoin="round"></path> </svg> 