<?xml version="1.0" encoding="UTF-8"?> <svg xmlns="http://www.w3.org/2000/svg" width="15" height="18" viewBox="0 0 15 18" fill="none"> <path d="M4.61419 15.6928H10.1512V17.5385H4.61419C2.06716 17.5385 0 15.4714 0 12.9243V4.6188H1.84567V12.9243C1.84567 14.4562 3.08228 15.6928 4.61419 15.6928ZM5.92462 3.15149C6.64443 2.43168 6.64443 1.25967 5.92462 0.53986C5.2048 -0.179953 4.0328 -0.179953 3.31299 0.53986C2.59317 1.25967 2.59317 2.43168 3.31299 3.15149C4.0328 3.88053 5.19557 3.88053 5.92462 3.15149ZM6.92128 6.46448C6.92128 5.44936 6.09073 4.6188 5.07561 4.6188H4.61419C3.59907 4.6188 2.76851 5.44936 2.76851 6.46448V12.0015C2.76851 13.5334 4.00511 14.77 5.53702 14.77H10.2158L13.4457 17.9999L14.7654 16.6803L10.0866 12.0015H6.92128V6.46448Z" fill="#2C76EF"></path> </svg> 