<?xml version="1.0" encoding="UTF-8"?> <svg xmlns="http://www.w3.org/2000/svg" width="42" height="41" viewBox="0 0 42 41" fill="none"> <path d="M28.0213 1.00011H13.9798C8.99926 1.00011 7.89914 3.48037 7.25907 6.5207L4.99883 17.3419H37.0023L34.742 6.5207C34.102 3.48037 33.0018 1.00011 28.0213 1.00011Z" stroke="white" stroke-width="2" stroke-linecap="round" stroke-linejoin="round"></path> <path d="M40.9822 34.9836C41.2022 37.3239 39.322 39.3441 36.9217 39.3441H33.1613C31.0011 39.3441 30.7011 38.424 30.321 37.2839L29.921 36.0837C29.3609 34.4435 29.0009 33.3434 26.1206 33.3434H15.8795C12.9992 33.3434 12.5791 34.5836 12.0791 36.0837L11.679 37.2839C11.299 38.424 10.9989 39.3441 8.83871 39.3441H5.07831C2.67805 39.3441 0.79785 37.3239 1.01787 34.9836L2.13799 22.8023C2.41802 19.802 2.99809 17.3417 8.23865 17.3417H33.7614C39.002 17.3417 39.582 19.802 39.8621 22.8023L40.9822 34.9836Z" stroke="white" stroke-width="2" stroke-linecap="round" stroke-linejoin="round"></path> <path d="M4.99883 11.3411H2.99861" stroke="white" stroke-width="2" stroke-linecap="round" stroke-linejoin="round"></path> <path d="M39.0025 11.3411H37.0023" stroke="white" stroke-width="2" stroke-linecap="round" stroke-linejoin="round"></path> <path d="M21.0005 1.33999V5.34042" stroke="white" stroke-width="2" stroke-linecap="round" stroke-linejoin="round"></path> <path d="M18.0002 5.34042H24.0009" stroke="white" stroke-width="2" stroke-linecap="round" stroke-linejoin="round"></path> <path d="M8.99926 25.3426H14.9999" stroke="white" stroke-width="2" stroke-linecap="round" stroke-linejoin="round"></path> <path d="M27.0012 25.3426H33.0018" stroke="white" stroke-width="2" stroke-linecap="round" stroke-linejoin="round"></path> </svg> 