<?xml version="1.0" encoding="UTF-8"?> <svg xmlns="http://www.w3.org/2000/svg" width="48" height="48" viewBox="0 0 48 48" fill="none"> <path d="M3 15C3 13.4087 3.63214 11.8826 4.75736 10.7574C5.88258 9.63214 7.4087 9 9 9H39C40.5913 9 42.1174 9.63214 43.2426 10.7574C44.3679 11.8826 45 13.4087 45 15V30C45.0006 31.1479 44.672 32.2719 44.053 33.2386C43.4341 34.2053 42.5508 34.9742 41.508 35.454C41.2942 35.0341 41.0158 34.6505 40.683 34.317L28.683 22.317C28.0537 21.6873 27.2516 21.2583 26.3785 21.0845C25.5053 20.9107 24.6002 20.9999 23.7776 21.3406C22.9551 21.6814 22.2522 22.2585 21.7577 22.9989C21.2633 23.7393 20.9996 24.6097 21 25.5V36H9C7.4087 36 5.88258 35.3679 4.75736 34.2426C3.63214 33.1174 3 31.5913 3 30V15ZM26.562 24.438C26.3522 24.2277 26.0847 24.0844 25.7934 24.0263C25.502 23.9682 25.2 23.9979 24.9256 24.1116C24.6512 24.2254 24.4167 24.4181 24.2519 24.6652C24.0872 24.9124 23.9995 25.2029 24 25.5V43.5C24 43.8148 24.0991 44.1217 24.2831 44.3771C24.4672 44.6325 24.727 44.8235 25.0257 44.923C25.3243 45.0226 25.6467 45.0256 25.9473 44.9318C26.2478 44.8379 26.5111 44.6519 26.7 44.4L30.75 39H37.5C37.7971 39.0005 38.0876 38.9128 38.3348 38.7481C38.5819 38.5833 38.7746 38.3488 38.8884 38.0744C39.0021 37.8 39.0318 37.498 38.9737 37.2066C38.9156 36.9153 38.7723 36.6478 38.562 36.438L26.562 24.438Z" fill="#0A70E5"></path> <path d="M3 15C3 13.4087 3.63214 11.8826 4.75736 10.7574C5.88258 9.63214 7.4087 9 9 9H39C40.5913 9 42.1174 9.63214 43.2426 10.7574C44.3679 11.8826 45 13.4087 45 15V30C45.0006 31.1479 44.672 32.2719 44.053 33.2386C43.4341 34.2053 42.5508 34.9742 41.508 35.454C41.2942 35.0341 41.0158 34.6505 40.683 34.317L28.683 22.317C28.0537 21.6873 27.2516 21.2583 26.3785 21.0845C25.5053 20.9107 24.6002 20.9999 23.7776 21.3406C22.9551 21.6814 22.2522 22.2585 21.7577 22.9989C21.2633 23.7393 20.9996 24.6097 21 25.5V36H9C7.4087 36 5.88258 35.3679 4.75736 34.2426C3.63214 33.1174 3 31.5913 3 30V15ZM26.562 24.438C26.3522 24.2277 26.0847 24.0844 25.7934 24.0263C25.502 23.9682 25.2 23.9979 24.9256 24.1116C24.6512 24.2254 24.4167 24.4181 24.2519 24.6652C24.0872 24.9124 23.9995 25.2029 24 25.5V43.5C24 43.8148 24.0991 44.1217 24.2831 44.3771C24.4672 44.6325 24.727 44.8235 25.0257 44.923C25.3243 45.0226 25.6467 45.0256 25.9473 44.9318C26.2478 44.8379 26.5111 44.6519 26.7 44.4L30.75 39H37.5C37.7971 39.0005 38.0876 38.9128 38.3348 38.7481C38.5819 38.5833 38.7746 38.3488 38.8884 38.0744C39.0021 37.8 39.0318 37.498 38.9737 37.2066C38.9156 36.9153 38.7723 36.6478 38.562 36.438L26.562 24.438Z" fill="url(#paint0_linear_54_257)"></path> <path d="M3 15C3 13.4087 3.63214 11.8826 4.75736 10.7574C5.88258 9.63214 7.4087 9 9 9H39C40.5913 9 42.1174 9.63214 43.2426 10.7574C44.3679 11.8826 45 13.4087 45 15V30C45.0006 31.1479 44.672 32.2719 44.053 33.2386C43.4341 34.2053 42.5508 34.9742 41.508 35.454C41.2942 35.0341 41.0158 34.6505 40.683 34.317L28.683 22.317C28.0537 21.6873 27.2516 21.2583 26.3785 21.0845C25.5053 20.9107 24.6002 20.9999 23.7776 21.3406C22.9551 21.6814 22.2522 22.2585 21.7577 22.9989C21.2633 23.7393 20.9996 24.6097 21 25.5V36H9C7.4087 36 5.88258 35.3679 4.75736 34.2426C3.63214 33.1174 3 31.5913 3 30V15ZM26.562 24.438C26.3522 24.2277 26.0847 24.0844 25.7934 24.0263C25.502 23.9682 25.2 23.9979 24.9256 24.1116C24.6512 24.2254 24.4167 24.4181 24.2519 24.6652C24.0872 24.9124 23.9995 25.2029 24 25.5V43.5C24 43.8148 24.0991 44.1217 24.2831 44.3771C24.4672 44.6325 24.727 44.8235 25.0257 44.923C25.3243 45.0226 25.6467 45.0256 25.9473 44.9318C26.2478 44.8379 26.5111 44.6519 26.7 44.4L30.75 39H37.5C37.7971 39.0005 38.0876 38.9128 38.3348 38.7481C38.5819 38.5833 38.7746 38.3488 38.8884 38.0744C39.0021 37.8 39.0318 37.498 38.9737 37.2066C38.9156 36.9153 38.7723 36.6478 38.562 36.438L26.562 24.438Z" fill="url(#paint1_linear_54_257)"></path> <path d="M26.562 24.438C26.3522 24.2277 26.0847 24.0844 25.7934 24.0263C25.502 23.9682 25.2 23.9979 24.9256 24.1116C24.6512 24.2254 24.4167 24.4181 24.2519 24.6652C24.0872 24.9124 23.9995 25.2029 24 25.5V43.5C24 43.8148 24.0991 44.1217 24.2831 44.3771C24.4672 44.6325 24.727 44.8235 25.0257 44.923C25.3243 45.0226 25.6468 45.0256 25.9473 44.9318C26.2478 44.8379 26.5111 44.6519 26.7 44.4L30.75 39H37.5C37.7971 39.0005 38.0876 38.9128 38.3348 38.7481C38.5819 38.5833 38.7746 38.3488 38.8884 38.0744C39.0021 37.8 39.0318 37.498 38.9737 37.2066C38.9156 36.9153 38.7723 36.6478 38.562 36.438L26.562 24.438Z" fill="white"></path> <g clip-path="url(#clip0_54_257)"> <path d="M10.5998 29.25C11.7596 29.25 12.6998 28.3434 12.6998 27.225C12.6998 26.1066 11.7596 25.2 10.5998 25.2C9.44001 25.2 8.4998 26.1066 8.4998 27.225C8.4998 28.3434 9.44001 29.25 10.5998 29.25Z" fill="white"></path> <path d="M13.5398 21.15H11.2998C10.4598 17.505 6.81981 15.075 3.03981 15.885C0.239805 16.425 -2.0002 18.45 -2.5602 21.15H-3.5402C-4.9402 21.15 -6.2002 22.365 -6.2002 23.715V25.47C-6.2002 26.415 -5.3602 27.225 -4.3802 27.225H-3.9602C-3.9602 25.47 -2.4202 23.985 -0.600195 23.985C1.2198 23.985 2.7598 25.47 2.7598 27.225H7.23981C7.23981 25.47 8.77981 23.985 10.5998 23.985C12.4198 23.985 13.9598 25.47 13.9598 27.225H14.3798C15.3598 27.225 16.1998 26.415 16.1998 25.47V23.85C16.1998 22.365 14.9398 21.15 13.5398 21.15ZM-0.320196 21.15C0.379805 18.585 3.1798 17.235 5.69981 17.91C7.23981 18.315 8.4998 19.53 9.0598 21.15H-0.320196ZM-0.600195 25.2C-1.7202 25.2 -2.7002 26.145 -2.7002 27.225C-2.7002 28.305 -1.7202 29.25 -0.600195 29.25C0.519805 29.25 1.4998 28.305 1.4998 27.225C1.4998 26.145 0.519805 25.2 -0.600195 25.2Z" fill="white"></path> </g> <defs> <linearGradient id="paint0_linear_54_257" x1="24" y1="9" x2="24" y2="45" gradientUnits="userSpaceOnUse"> <stop stop-color="#0B6CE1"></stop> <stop offset="1" stop-color="#047AED"></stop> </linearGradient> <linearGradient id="paint1_linear_54_257" x1="24" y1="9" x2="24" y2="45" gradientUnits="userSpaceOnUse"> <stop stop-color="#0B6CE1"></stop> <stop offset="1" stop-color="#047AED"></stop> </linearGradient> <clipPath id="clip0_54_257"> <rect width="16" height="27" fill="white" transform="translate(3 9)"></rect> </clipPath> </defs> </svg> 