<?xml version="1.0" encoding="UTF-8"?> <svg xmlns="http://www.w3.org/2000/svg" width="158" height="26" viewBox="0 0 158 26" fill="none"> <path opacity="0.5" d="M6.8717 23.6631C6.87183 23.5411 6.89904 23.4206 6.95135 23.3103C7.00366 23.2001 7.07978 23.1028 7.17423 23.0255C7.26867 22.9483 7.37908 22.8929 7.4975 22.8634C7.61592 22.834 7.7394 22.8312 7.85904 22.8552C7.97888 22.8793 8.09184 22.9298 8.18969 23.0031C8.28754 23.0764 8.36781 23.1705 8.42466 23.2788C8.4815 23.387 8.5135 23.5065 8.5183 23.6287C8.52311 23.7508 8.50061 23.8725 8.45245 23.9849C8.38851 24.1351 8.28139 24.2629 8.14469 24.3521C8.00799 24.4413 7.84786 24.488 7.68463 24.486C7.18344 24.5462 6.8727 24.1753 6.8727 23.6631H6.8717ZM8.94862 22.3369H8.44743V22.7178C8.34468 22.581 8.21149 22.4699 8.05839 22.3933C7.9053 22.3168 7.7365 22.2769 7.56534 22.2768C7.21667 22.306 6.89175 22.4653 6.65515 22.7231C6.41855 22.9809 6.2876 23.3182 6.28832 23.6681C6.28873 24.0175 6.41994 24.3541 6.6561 24.6116C6.89227 24.8691 7.21628 25.0288 7.56434 25.0594C7.72232 25.0701 7.88044 25.0408 8.0241 24.9742C8.16776 24.9076 8.29232 24.8059 8.38629 24.6785V24.9892H8.94862V22.3369ZM28.4037 23.6631C28.4042 23.5007 28.4527 23.3421 28.543 23.2072C28.6333 23.0723 28.7615 22.9671 28.9114 22.9047C29.0613 22.8424 29.2263 22.8258 29.3857 22.8569C29.545 22.888 29.6916 22.9655 29.8071 23.0797C29.9225 23.1948 30.0012 23.3416 30.0331 23.5014C30.0651 23.6613 30.049 23.827 29.9867 23.9777C29.9245 24.1283 29.819 24.2572 29.6835 24.3478C29.548 24.4385 29.3887 24.4869 29.2257 24.487C28.6543 24.5472 28.4037 24.1753 28.4037 23.6631ZM30.4897 23.6631V21.2604H29.9183V22.7168C29.8273 22.5823 29.7049 22.4718 29.5617 22.395C29.4185 22.3182 29.2589 22.2773 29.0964 22.2758C28.9182 22.2794 28.7426 22.3182 28.5794 22.3899C28.4163 22.4617 28.269 22.5649 28.1458 22.6937C28.0227 22.8225 27.9262 22.9743 27.862 23.1405C27.7977 23.3067 27.7668 23.484 27.7712 23.6621C27.7602 23.8431 27.7866 24.0245 27.8489 24.1948C27.9112 24.3652 28.008 24.5208 28.1333 24.652C28.2585 24.7832 28.4095 24.8871 28.5768 24.9572C28.7441 25.0273 28.924 25.0621 29.1054 25.0594C29.2636 25.0704 29.4219 25.0412 29.5658 24.9746C29.7096 24.908 29.8344 24.8062 29.9284 24.6785V24.9892H30.4997L30.4897 23.6631ZM16.0625 22.8391C16.2372 22.8383 16.4059 22.9026 16.5357 23.0196C16.6655 23.1366 16.7469 23.2978 16.7641 23.4716H15.3909C15.4079 23.303 15.4852 23.1462 15.6086 23.03C15.732 22.9138 15.8931 22.846 16.0625 22.8391ZM16.1326 22.2758C15.784 22.3053 15.4592 22.4648 15.2228 22.7228C14.9863 22.9807 14.8556 23.3182 14.8566 23.6681C14.857 24.0175 14.9882 24.3541 15.2244 24.6116C15.4606 24.8691 15.7846 25.0288 16.1326 25.0594C16.5232 25.0569 16.9014 24.9227 17.2062 24.6785L16.9556 24.2354C16.7367 24.4015 16.4686 24.4897 16.1938 24.486C16.1027 24.4946 16.0109 24.485 15.9236 24.4578C15.8363 24.4306 15.7552 24.3863 15.6851 24.3276C15.615 24.2689 15.5573 24.1968 15.5152 24.1156C15.4731 24.0344 15.4476 23.9457 15.44 23.8545H17.4468V23.6631C17.4576 23.3081 17.3278 22.9632 17.0857 22.7034C16.8435 22.4436 16.5086 22.2899 16.1537 22.2758H16.1337H16.1326ZM23.0861 23.6631C23.0866 23.5007 23.1351 23.3421 23.2254 23.2072C23.3157 23.0723 23.4439 22.9671 23.5938 22.9047C23.7437 22.8424 23.9087 22.8258 24.0681 22.8569C24.2274 22.888 24.374 22.9655 24.4895 23.0797C24.6044 23.195 24.6826 23.3417 24.7143 23.5014C24.746 23.6611 24.7298 23.8266 24.6676 23.9771C24.6055 24.1275 24.5002 24.2562 24.365 24.347C24.2299 24.4377 24.0709 24.4865 23.9081 24.487C23.3467 24.5472 23.0861 24.1753 23.0861 23.6631ZM25.2332 23.6631V22.3369H24.6619V22.7178C24.5706 22.583 24.4479 22.4724 24.3044 22.3955C24.1608 22.3187 24.0007 22.2779 23.8379 22.2768C23.4894 22.3062 23.1647 22.4657 22.9284 22.7234C22.692 22.9811 22.5612 23.3184 22.5619 23.6681C22.5621 24.0176 22.6932 24.3543 22.9294 24.6118C23.1656 24.8694 23.4898 25.0291 23.8379 25.0594C23.9961 25.0703 24.1544 25.041 24.2982 24.9745C24.4421 24.9079 24.5668 24.8061 24.6609 24.6785V24.9892H25.2322V23.6631H25.2332ZM19.8655 23.6631C19.8509 23.9418 19.9243 24.218 20.0754 24.4526C20.2266 24.6872 20.4477 24.8683 20.7075 24.9702C20.8799 25.0373 21.0643 25.0684 21.2488 25.0594C21.5961 25.0781 21.9375 24.9634 22.203 24.7386L21.9524 24.2956C21.747 24.4459 21.5034 24.5322 21.2498 24.5462C21.1415 24.5505 21.0334 24.5325 20.9323 24.4933C20.8313 24.454 20.7393 24.3945 20.6622 24.3182C20.5852 24.242 20.5246 24.1507 20.4843 24.0501C20.4439 23.9495 20.4247 23.8416 20.4278 23.7333C20.4189 23.623 20.4341 23.5121 20.4722 23.4082C20.5104 23.3043 20.5706 23.21 20.6487 23.1316C20.7269 23.0533 20.8211 22.9929 20.9248 22.9545C21.0286 22.9161 21.1395 22.9007 21.2498 22.9093C21.5072 22.8996 21.7584 22.9893 21.9514 23.1599L22.202 22.7189C22.0952 22.5689 21.9513 22.4492 21.7844 22.3716C21.6175 22.2939 21.4333 22.2609 21.2498 22.2758C21.0625 22.2645 20.8748 22.2922 20.6988 22.3573C20.5228 22.4224 20.3622 22.5234 20.2273 22.6538C20.0924 22.7843 19.9862 22.9414 19.9152 23.1151C19.8443 23.2889 19.8103 23.4755 19.8154 23.6631H19.8655ZM27.249 22.2758C27.1091 22.2653 26.9691 22.2959 26.8463 22.3637C26.7234 22.4315 26.623 22.5337 26.5574 22.6577V22.3369H25.986V24.9892H26.5574V23.5418C26.5574 23.1008 26.7478 22.8391 27.1287 22.8391C27.2564 22.8282 27.3847 22.8525 27.4996 22.9093L27.69 22.3971C27.5335 22.3318 27.3678 22.2912 27.1989 22.2768H27.249V22.2758ZM11.9086 22.5875C11.5863 22.3936 11.211 22.3059 10.8361 22.3369C10.1435 22.3369 9.76155 22.6577 9.76155 23.1599C9.76155 23.6631 10.0723 23.8535 10.6436 23.9137L10.8952 23.9838C11.216 24.044 11.3363 24.1041 11.3363 24.2354C11.3363 24.3658 11.1458 24.5462 10.7048 24.5462C10.3926 24.5509 10.0858 24.4637 9.82269 24.2956L9.5711 24.7376C9.89988 24.9752 10.3008 25.0885 10.7048 25.0594C11.4666 25.0594 11.9086 24.6785 11.9086 24.1753C11.9086 23.6731 11.5879 23.4716 10.9063 23.4115L10.6547 23.3513C10.4041 23.2812 10.2136 23.2812 10.2136 23.1008C10.2136 22.9193 10.4041 22.778 10.7148 22.778C11.0065 22.787 11.2912 22.8732 11.5368 23.0296L11.9086 22.5885V22.5875ZM19.2931 22.2768C19.1533 22.2661 19.0134 22.2965 18.8905 22.3641C18.7677 22.4318 18.6672 22.5338 18.6015 22.6577V22.3369H18.0291V24.9892H18.6005V23.5418C18.6005 23.1008 18.791 22.8391 19.1719 22.8391C19.2999 22.828 19.4285 22.8523 19.5437 22.9093L19.7342 22.3359C19.4936 22.3359 19.3733 22.2758 19.243 22.2758H19.2931V22.2768ZM14.3665 22.3369H13.4242V21.513H12.8519V22.3369H12.3507V22.9083H12.8519V24.1152C12.8519 24.7477 13.1025 25.1195 13.8041 25.1195C14.0487 25.1215 14.2883 25.0554 14.4978 24.9291L14.3073 24.4159C14.1581 24.5117 13.9821 24.5574 13.8051 24.5462C13.4844 24.5462 13.4242 24.3557 13.4242 24.1051V22.9093H14.3665V22.3359V22.3369ZM5.79815 24.9892V23.3513C5.80763 23.2138 5.78875 23.0758 5.74269 22.9459C5.69662 22.816 5.62436 22.6969 5.53037 22.596C5.43639 22.4952 5.32269 22.4147 5.19633 22.3597C5.06996 22.3046 4.93363 22.276 4.79578 22.2758C4.61391 22.2733 4.4338 22.3117 4.26879 22.3882C4.10378 22.4648 3.9581 22.5774 3.84252 22.7178C3.74015 22.5803 3.6069 22.4687 3.45351 22.3921C3.30012 22.3155 3.13088 22.276 2.95943 22.2768C2.81126 22.2654 2.6628 22.2949 2.53024 22.3621C2.39768 22.4292 2.2861 22.5315 2.20764 22.6577V22.3369H1.62526V24.9892H2.19662V23.5418C2.18521 23.4529 2.19312 23.3625 2.21982 23.2769C2.24651 23.1913 2.29136 23.1124 2.35131 23.0457C2.41125 22.979 2.48488 22.926 2.56716 22.8904C2.64945 22.8547 2.73846 22.8373 2.82811 22.8391C3.2 22.8391 3.39045 23.0998 3.39045 23.5418V24.9892H3.9618V23.5418C3.95038 23.4528 3.95831 23.3623 3.98507 23.2766C4.01182 23.1909 4.05676 23.1121 4.11682 23.0453C4.17687 22.9786 4.25062 22.9257 4.33303 22.8901C4.41544 22.8545 4.50456 22.8371 4.5943 22.8391C4.9752 22.8391 5.16566 23.0998 5.16566 23.5418V24.9892H5.79815ZM12.2605 10.0478C12.2574 8.52986 12.5978 7.03087 13.2562 5.66315C13.9146 4.29542 14.874 3.09441 16.0625 2.1501C14.8173 1.17199 13.3563 0.505971 11.8012 0.207644C10.2462 -0.0906824 8.64239 -0.012656 7.12368 0.435208C5.60496 0.883072 4.21543 1.68778 3.07111 2.78213C1.92679 3.87648 1.06089 5.22872 0.545704 6.72594C0.0284634 8.22365 -0.124044 9.82314 0.100845 11.3916C0.325735 12.9601 0.921531 14.4523 1.83877 15.7443C2.75556 17.0349 3.96743 18.0877 5.37343 18.8151C6.77944 19.5425 8.3389 19.9235 9.92193 19.9262C12.146 19.9426 14.3102 19.206 16.0625 17.8363C14.864 16.9259 13.8956 15.7472 13.2353 14.3947C12.575 13.0422 12.2411 11.5537 12.2605 10.0488V10.0478ZM32.1155 10.0478C32.1244 11.9153 31.6052 13.7472 30.618 15.3323C29.8813 16.5174 28.9018 17.5328 27.7439 18.3116C26.5861 19.0903 25.2763 19.6147 23.9009 19.8502C22.5256 20.0857 21.1159 20.0269 19.765 19.6777C18.414 19.3284 17.1524 18.6967 16.0635 17.8242C17.2542 16.8947 18.2148 15.7033 18.8707 14.3426C19.5266 12.9818 19.8601 11.4882 19.8455 9.97765C19.8573 8.47021 19.5223 6.98024 18.8663 5.62295C18.2103 4.26566 17.251 3.07742 16.0625 2.1501C17.8052 0.776875 19.9543 0.0206715 22.173 0C24.8117 0.0473484 27.3275 1.12394 29.1836 3.00011C31.041 4.87813 32.0929 7.40649 32.1155 10.0478Z" fill="#091433"></path> <path opacity="0.5" d="M16.0626 3.29578C15.1335 4.16172 14.3882 5.20577 13.8711 6.36576C13.3539 7.52575 13.0755 8.77795 13.0524 10.0478C13.0847 11.319 13.3671 12.5714 13.8836 13.7333C14.4001 14.8953 15.1405 15.9441 16.0626 16.8198C16.9864 15.9455 17.728 14.897 18.2446 13.7347C18.7613 12.5724 19.0427 11.3194 19.0727 10.0478C19.0525 8.77746 18.7753 7.52438 18.258 6.36399C17.7407 5.2036 16.9939 4.15991 16.0626 3.29578Z" fill="#091433"></path> <path opacity="0.5" d="M72.8251 5.69343C69.7509 5.69343 67.0023 7.29021 67.0023 10.2342C67.0023 13.6102 71.8749 13.8447 71.8749 15.5398C71.8749 16.2555 71.0559 16.893 69.6596 16.893C67.6749 16.893 66.1914 15.9989 66.1914 15.9989L65.5549 18.9729C65.5549 18.9729 67.263 19.7277 69.5303 19.7277C72.8943 19.7277 75.5386 18.0537 75.5386 15.0586C75.5386 11.4902 70.644 11.2656 70.644 9.68689C70.644 9.12757 71.3156 8.51211 72.7119 8.51211C74.2856 8.51211 75.5686 9.16265 75.5686 9.16265L76.1901 6.29285C76.1901 6.29686 74.7938 5.69443 72.8261 5.69443L72.8251 5.69343ZM44.6884 5.91194L44.6153 6.34497C44.6153 6.34497 45.9073 6.58354 47.0731 7.05566C48.5737 7.59694 48.6819 7.91369 48.9335 8.89401L51.686 19.5062H55.3748L61.0643 5.91094H57.3835L53.7289 15.1539L52.2373 7.32028C52.103 6.42316 51.4084 5.91094 50.5594 5.91094H44.6895L44.6884 5.91194ZM62.5458 5.91194L59.6589 19.5032H63.1703L66.0441 5.91094H62.5458V5.91194ZM82.1282 5.91194C81.2832 5.91194 80.8321 6.36702 80.5023 7.15589L75.3602 19.5032H79.0419L79.7536 17.4443H84.2392L84.6732 19.5032H87.9249L85.0892 5.91094H82.1282V5.91194ZM82.6093 9.58365L83.7019 14.6857H80.775L82.6093 9.58365Z" fill="#091433"></path> <path opacity="0.5" d="M135.736 7.17394L132.551 14.0382H132.228V5.69443H127.677V19.7277H131.451C132.475 19.7277 133.386 19.1393 133.821 18.2291L137.026 11.3829H137.348V19.7277H141.9V5.69443H138.069C137.083 5.69443 136.154 6.28182 135.736 7.17394ZM118.821 7.53379L116.944 14.0392H116.621L114.724 7.53379C114.568 7.0014 114.243 6.53417 113.799 6.20243C113.354 5.87069 112.813 5.69241 112.259 5.69443H107.765V19.7277H112.316V11.3839H112.639L115.256 19.7277H118.29L120.906 11.3839H121.229V19.7277H125.781V5.69443H121.286C120.148 5.69443 119.124 6.43418 118.82 7.53379H118.821ZM143.796 11.9523V19.7277H148.347V15.1769H153.241C154.245 15.1798 155.226 14.8713 156.048 14.2938C156.869 13.7163 157.492 12.8982 157.83 11.9523H143.796ZM153.107 5.69343H142.98C143.607 9.03134 146.527 11.3839 150.035 11.3839H157.906C157.967 11.0587 157.999 10.7285 158 10.3976C158 7.68515 155.82 5.69443 153.108 5.69443L153.107 5.69343Z" fill="#091433"></path> </svg> 