<?xml version="1.0" encoding="UTF-8"?> <svg xmlns="http://www.w3.org/2000/svg" width="44" height="47" viewBox="0 0 44 47" fill="none"> <path d="M12.0531 7.63232H31.9469C33.3174 7.63232 34.5331 7.67653 35.6162 7.83126C41.4297 8.47229 42.9991 11.2132 42.9991 18.6845V27.5262C42.9991 34.9974 41.4297 37.7383 35.6162 38.3794C34.5331 38.5341 33.3174 38.5783 31.9469 38.5783H12.0531C10.6826 38.5783 9.46689 38.5341 8.38378 38.3794C2.57035 37.7383 1.00095 34.9974 1.00095 27.5262V18.6845C1.00095 11.2132 2.57035 8.47229 8.38378 7.83126C9.46689 7.67653 10.6826 7.63232 12.0531 7.63232Z" stroke="white" stroke-width="2" stroke-linecap="round" stroke-linejoin="round"></path> <path d="M5.42213 1.00095H38.5785" stroke="white" stroke-width="2" stroke-linecap="round" stroke-linejoin="round"></path> <path d="M6.52767 45.2094H39.6841" stroke="white" stroke-width="2" stroke-linecap="round" stroke-linejoin="round"></path> <path d="M15.4942 24.0661L18.7272 27.2992L28.4264 17.6" stroke="white" stroke-width="2" stroke-linecap="round" stroke-linejoin="round"></path> </svg> 